<?xml version="1.0" encoding="utf-8"?>
<svg xmlns="http://www.w3.org/2000/svg" viewBox="0 0 30 30" width="480" height="480">
  <path d="M13 3C12.734 3 12.479969 3.1049687 12.292969 3.2929688L11.585938 4L7.734375 4C6.251375 4 4.9736719 5.1071719 4.7636719 6.5761719L4.4179688 9L6.4394531 9L6.7441406 6.8574219C6.8131406 6.3684219 7.240375 6 7.734375 6L12 6C12.266 6 12.520031 5.8950312 12.707031 5.7070312L13.414062 5L16.585938 5L17.292969 5.7070312C17.479969 5.8950312 17.734 6 18 6L22.265625 6C22.759625 6 23.186859 6.369375 23.255859 6.859375L23.560547 9L25.582031 9L25.236328 6.5761719C25.025328 5.1071719 23.748625 4 22.265625 4L18.414062 4L17.707031 3.2929688C17.520031 3.1049687 17.266 3 17 3L13 3 z M 3 11C2.448 11 2 11.448 2 12L2 14C2 14.552 2.448 15 3 15L3.1660156 15L4.7207031 24.328125C4.8817031 25.292125 5.7163594 26 6.6933594 26L23.304688 26C24.282688 26 25.116344 25.292125 25.277344 24.328125L26.833984 15L27 15C27.552 15 28 14.552 28 14L28 12C28 11.448 27.552 11 27 11L3 11 z M 10 16C10.552 16 11 16.448 11 17L11 22C11 22.552 10.552 23 10 23C9.448 23 9 22.552 9 22L9 17C9 16.448 9.448 16 10 16 z M 15 16C15.552 16 16 16.448 16 17L16 22C16 22.552 15.552 23 15 23C14.448 23 14 22.552 14 22L14 17C14 16.448 14.448 16 15 16 z M 20 16C20.552 16 21 16.448 21 17L21 22C21 22.552 20.552 23 20 23C19.448 23 19 22.552 19 22L19 17C19 16.448 19.448 16 20 16 z" fill="#FFFFFF" />
</svg>