<?xml version="1.0" encoding="utf-8"?>
<svg xmlns="http://www.w3.org/2000/svg" viewBox="0 0 30 30" width="480" height="480">
  <path d="M8 3C6.897 3 6 3.897 6 5L6 14L14.585938 14L12.292969 11.707031C11.901969 11.316031 11.901969 10.683969 12.292969 10.292969C12.683969 9.9019687 13.316031 9.9019687 13.707031 10.292969L17.707031 14.292969C18.098031 14.683969 18.098031 15.316031 17.707031 15.707031L13.707031 19.707031C13.512031 19.902031 13.256 20 13 20C12.744 20 12.487969 19.902031 12.292969 19.707031C11.901969 19.316031 11.901969 18.683969 12.292969 18.292969L14.585938 16L6 16L6 25C6 26.103 6.897 27 8 27L22 27C23.103 27 24 26.103 24 25L24 5C24 3.897 23.103 3 22 3L8 3 z M 6 16L6 14L1 14C0.448 14 0 14.448 0 15C0 15.552 0.448 16 1 16L6 16 z" fill="#FFFFFF" />
</svg>