<?xml version="1.0" encoding="utf-8"?>
<svg xmlns="http://www.w3.org/2000/svg" viewBox="0 0 64 64" width="512" height="512">
  <path d="M8 9L8 13L56 12L56 9L8 9 z M 6 15L6 19L58 18L58 15L6 15 z M 4 21L4 55L60 55L60 21L4 21 z M 12 25L52 25C52 27.209 53.791 29 56 29L56 47C53.791 47 52 48.791 52 51L12 51C12 48.791 10.209 47 8 47L8 29C10.209 29 12 27.209 12 25 z M 32 31C27.029 31 23 35.925 23 42C23 43.802 23.362234 45.499 23.990234 47L40.009766 47C40.638766 45.499 41 43.802 41 42C41 35.925 36.971 31 32 31 z M 15 35 A 3 3 0 0 0 15 41 A 3 3 0 0 0 15 35 z M 49 35 A 3 3 0 0 0 49 41 A 3 3 0 0 0 49 35 z" fill="#FFFFFF" />
</svg>