<?xml version="1.0" encoding="utf-8"?>
<svg xmlns="http://www.w3.org/2000/svg" viewBox="0 0 30 30" width="480" height="480">
  <path d="M8.9804688 2.9902344 A 1.0001 1.0001 0 0 0 8.2929688 3.2929688L4.3808594 7.2050781 A 1.0001 1.0001 0 0 0 4.3769531 8.7929688 A 1.0001 1.0001 0 0 0 4.3828125 8.796875L8.2929688 12.707031 A 1.0001 1.0001 0 1 0 9.7070312 11.292969L7.4140625 9L17 9C20.877484 9 24 12.122516 24 16C24 19.877484 20.877484 23 17 23L5 23 A 1.0001 1.0001 0 1 0 5 25L17 25C21.958516 25 26 20.958516 26 16C26 11.041484 21.958516 7 17 7L7.4140625 7L9.7070312 4.7070312 A 1.0001 1.0001 0 0 0 8.9804688 2.9902344 z" fill="#FFFFFF" />
</svg>